<?xml version="1.0" standalone="no"?>
<!DOCTYPE svg PUBLIC "-//W3C//DTD SVG 20010904//EN"
 "http://www.w3.org/TR/2001/REC-SVG-20010904/DTD/svg10.dtd">
<svg version="1.0" xmlns="http://www.w3.org/2000/svg"
 width="1200.000000pt" height="1454.000000pt" viewBox="0 0 1200.000000 1454.000000"
 preserveAspectRatio="xMidYMid meet">

<g transform="translate(0.000000,1454.000000) scale(0.100000,-0.100000)"
fill="#000000" stroke="none">
<path d="M5936 14367 c-388 -383 -1073 -669 -1834 -764 -193 -24 -646 -24
-827 1 -268 36 -510 96 -702 175 l-92 38 -37 -96 c-54 -136 -186 -394 -281
-546 -335 -536 -795 -975 -1388 -1322 -161 -94 -383 -205 -507 -252 l-27 -10
56 -83 c212 -317 366 -813 433 -1394 69 -607 41 -1282 -86 -2044 -52 -312
-100 -535 -234 -1080 -128 -522 -172 -722 -225 -1035 -71 -418 -99 -747 -99
-1145 1 -329 14 -503 60 -775 226 -1355 1081 -2235 2576 -2650 221 -61 438
-107 758 -160 441 -73 607 -108 888 -186 770 -215 1347 -554 1635 -959 16 -24
18 -24 30 -6 150 229 446 466 822 656 444 225 941 371 1650 486 376 61 567
101 835 176 1304 365 2121 1098 2449 2198 123 414 168 793 158 1343 -12 664
-84 1111 -355 2202 -190 763 -276 1298 -313 1955 -20 354 0 861 46 1173 77
513 226 965 409 1236 31 47 53 88 49 92 -5 4 -37 19 -73 34 -36 15 -123 57
-195 92 -503 252 -949 590 -1279 968 -259 297 -515 708 -640 1031 l-39 100
-91 -37 c-182 -75 -449 -141 -711 -176 -185 -24 -627 -24 -820 1 -771 98
-1411 364 -1833 760 l-87 81 -79 -78z m218 -611 c381 -250 855 -439 1341 -535
292 -58 540 -81 870 -81 336 0 557 21 805 77 63 14 121 26 129 27 8 0 41 -47
78 -114 271 -484 658 -937 1104 -1292 182 -145 510 -361 642 -424 20 -10 37
-21 37 -26 0 -4 -17 -52 -39 -105 -67 -168 -138 -426 -185 -668 -153 -793
-146 -1711 20 -2675 57 -336 98 -517 243 -1080 44 -173 99 -397 121 -498 286
-1294 245 -2308 -125 -3067 -350 -717 -1016 -1212 -2000 -1484 -152 -42 -400
-95 -585 -125 -85 -13 -229 -37 -320 -51 -791 -127 -1513 -387 -2035 -734 -55
-36 -128 -90 -163 -119 -36 -28 -69 -52 -74 -52 -5 0 -36 23 -69 50 -156 130
-461 309 -732 429 -484 216 -949 345 -1622 450 -458 72 -700 128 -1020 235
-631 212 -1106 524 -1451 952 -152 188 -320 496 -404 739 -185 533 -235 1173
-150 1919 51 443 119 774 324 1576 218 856 316 1569 316 2305 0 303 -11 503
-41 773 -46 418 -143 847 -253 1127 -20 49 -36 94 -36 100 0 5 49 37 107 70
596 335 1105 808 1488 1380 62 94 144 224 181 290 37 66 68 121 69 122 1 2 17
-2 36 -7 71 -21 279 -59 414 -77 199 -26 794 -26 1005 1 386 47 690 121 1010
243 265 101 570 259 755 391 68 49 71 50 95 33 14 -9 65 -42 114 -75z"/>
<path d="M5900 13464 c-129 -80 -405 -217 -560 -277 -517 -201 -986 -292
-1561 -304 -305 -6 -481 3 -712 38 -73 11 -150 22 -173 25 l-40 6 -44 -73
c-71 -121 -233 -356 -326 -474 -349 -441 -740 -786 -1245 -1100 l-46 -28 38
-116 c101 -312 172 -671 216 -1101 28 -274 25 -1042 -6 -1350 -60 -611 -142
-1069 -316 -1769 -199 -799 -261 -1122 -312 -1616 -21 -212 -25 -763 -5 -930
36 -311 93 -564 179 -790 274 -717 864 -1216 1775 -1499 265 -82 511 -136 903
-196 939 -146 1672 -403 2252 -792 l102 -68 118 79 c506 338 1186 593 1963
735 74 13 223 38 330 55 107 17 253 42 324 56 858 171 1496 495 1901 967 323
376 504 832 572 1440 20 186 23 656 4 858 -47 513 -123 918 -316 1688 -178
712 -261 1181 -322 1832 -22 234 -25 1031 -5 1235 50 513 111 821 244 1239 14
46 35 26 -177 165 -567 369 -1006 815 -1379 1401 -47 74 -87 139 -89 144 -2 7
-53 3 -143 -12 -265 -42 -331 -47 -689 -47 -345 0 -398 3 -665 41 -558 78
-1103 267 -1556 539 -59 36 -112 65 -118 65 -6 -1 -58 -30 -116 -66z m-510
-2101 c0 -7 -326 -269 -547 -440 l-62 -48 -3 -731 -3 -730 -187 124 -188 123
0 805 0 804 -55 0 -55 0 0 -765 c0 -421 -2 -765 -5 -765 -13 0 -365 242 -367
252 -1 7 -2 208 -2 447 l-1 435 -300 237 c-165 131 -301 242 -303 248 -3 8
304 11 1037 11 573 0 1041 -3 1041 -7z m3338 -2 c-3 -9 -339 -279 -536 -431
l-71 -55 -3 -2645 -3 -2645 -23 -136 c-103 -629 -390 -1042 -892 -1283 -372
-179 -883 -254 -1455 -216 -1094 74 -1695 601 -1810 1588 -13 106 -15 362 -15
1584 0 802 3 1458 8 1458 4 -1 86 -54 182 -118 l175 -117 6 -1325 c4 -954 9
-1347 18 -1405 62 -410 193 -693 419 -906 233 -220 549 -350 967 -399 130 -15
511 -16 645 -1 425 48 757 189 990 420 224 223 358 533 400 923 7 65 10 1023
10 2858 l0 2760 -50 0 -49 0 -4 -2782 c-3 -2919 -2 -2817 -47 -3035 -90 -433
-342 -746 -731 -907 -398 -164 -1000 -193 -1473 -69 -592 154 -922 570 -976
1227 -11 147 -14 2556 -3 2556 4 0 90 -55 190 -121 l183 -122 0 -1093 c0
-1149 2 -1220 45 -1390 104 -411 361 -645 818 -746 92 -21 128 -23 377 -23
248 1 285 3 378 23 342 75 570 229 716 483 34 60 82 191 109 299 l21 85 3
2611 3 2612 -305 242 c-168 133 -305 243 -305 246 0 2 471 4 1046 4 650 0
1044 -4 1042 -9z m-4820 -1573 c342 -227 856 -568 1142 -758 286 -190 862
-572 1280 -849 l760 -504 0 -208 c0 -124 -4 -209 -9 -209 -6 0 -373 241 -818
537 -444 295 -952 631 -1128 748 -176 117 -597 396 -935 620 -338 224 -679
450 -758 502 l-142 93 -250 0 -250 0 0 -2040 0 -2040 55 0 55 0 0 1985 0 1985
118 2 c64 0 144 1 178 1 l60 0 205 -135 c202 -134 677 -449 2354 -1563 479
-317 959 -636 1068 -708 l197 -130 0 -214 c0 -169 -3 -213 -12 -207 -30 18
-548 361 -1133 749 -2217 1472 -2645 1755 -2650 1755 -3 0 -5 -703 -5 -1562
l0 -1563 230 -180 c221 -173 229 -181 235 -221 4 -22 5 -52 3 -65 l-3 -24
-972 -3 c-535 -1 -973 2 -973 6 0 5 137 116 305 248 l304 239 0 1855 1 1855
-303 199 c-166 110 -306 204 -311 208 -6 4 325 8 735 8 l745 0 622 -412z
m6322 408 c0 -5 -207 -171 -472 -380 l-138 -108 0 -1854 0 -1854 305 -202
c167 -112 305 -206 305 -210 0 -10 -1150 -10 -1348 -1 l-144 6 -224 148 -224
148 0 211 c0 132 4 210 10 210 5 0 65 -37 132 -83 68 -46 165 -110 217 -142
l94 -59 248 -4 249 -4 0 2046 0 2046 -55 0 -55 0 0 -1990 0 -1990 -177 0 -178
0 -242 162 -243 161 0 210 c0 169 3 208 13 204 8 -3 105 -65 218 -139 112 -74
210 -137 217 -142 9 -6 12 308 12 1556 l0 1563 -230 182 -230 183 0 65 0 65
970 0 c534 0 970 -2 970 -4z m-4811 -6887 c134 -21 228 -93 272 -208 17 -43
23 -84 26 -176 10 -257 -64 -413 -226 -476 -78 -31 -278 -38 -386 -14 -49 11
-75 21 -75 30 0 16 21 118 25 123 2 2 40 -5 86 -14 107 -21 214 -15 277 18 53
27 98 99 108 170 l6 46 -58 -21 c-80 -29 -254 -30 -333 -3 -72 25 -145 95
-161 156 -17 63 -8 176 18 226 60 117 229 175 421 143z m1248 -14 c139 -41
204 -150 219 -369 12 -175 -27 -339 -99 -414 -118 -124 -422 -134 -553 -20
-89 78 -118 184 -112 408 4 131 9 164 28 214 43 111 130 179 254 196 78 11
199 4 263 -15z m1175 -5 c152 -57 217 -205 205 -465 -11 -232 -71 -337 -223
-391 -68 -24 -238 -24 -316 -1 -156 47 -227 181 -228 427 0 132 12 206 45 278
32 70 66 107 129 139 90 46 283 53 388 13z m-3432 -360 l0 -380 85 0 86 0 -3
-62 c-3 -58 -5 -63 -25 -62 -13 0 -133 1 -268 2 l-245 2 0 60 0 60 85 0 85 0
0 275 0 276 -96 -51 c-54 -28 -101 -47 -105 -43 -4 4 -9 37 -11 72 l-3 65 150
83 c139 76 154 83 208 83 l57 0 0 -380z"/>
<path d="M5223 3149 c-46 -23 -64 -55 -65 -116 -1 -93 56 -133 190 -133 64 0
88 5 130 26 59 29 61 38 37 120 -16 53 -53 96 -98 113 -48 18 -147 13 -194
-10z"/>
<path d="M6436 3159 c-90 -22 -118 -83 -124 -264 -8 -252 41 -335 198 -335 73
1 127 31 153 87 20 44 22 64 22 218 0 156 -2 174 -22 215 -13 25 -36 53 -51
62 -36 22 -124 30 -176 17z"/>
<path d="M7603 3161 c-72 -18 -104 -61 -123 -162 -23 -118 -5 -314 33 -373 32
-48 64 -61 152 -61 74 0 85 3 118 28 26 20 41 41 51 77 35 117 28 338 -14 419
-11 22 -33 47 -49 56 -36 18 -125 27 -168 16z"/>
</g>
</svg>
